name Run_500 02_newCOP3_v24.mot
datacolumns 19
datarows 17
range 2.13000000 2.14600000
endheader
                time	   R_ground_force_vx	   R_ground_force_vy	   R_ground_force_vz	   R_ground_force_px	   R_ground_force_py	   R_ground_force_pz	   L_ground_force_vx	   L_ground_force_vy	   L_ground_force_vz	   L_ground_force_px	   L_ground_force_py	   L_ground_force_pz	   R_ground_torque_x	   R_ground_torque_y	   R_ground_torque_z	   L_ground_torque_x	   L_ground_torque_y	   L_ground_torque_z	
          2.13000000	          0.00000000	          0.00000000	          0.00000000	          0.00000000	          0.00000000	          0.00000000	       -188.72682200	       1230.66784700	         35.47945800	          1.18661800	          0.00000000	         -0.34281700	          0.00000000	          0.00000000	          0.00000000	          0.00000000	        -14.19227000	          0.00000000	
          2.13100000	          0.00000000	          0.00000000	          0.00000000	          0.00000000	          0.00000000	          0.00000000	       -193.94206200	       1241.56286600	         32.02563100	          1.18466100	          0.00000000	         -0.34281900	          0.00000000	          0.00000000	          0.00000000	          0.00000000	        -14.00637500	          0.00000000	
          2.13200000	          0.00000000	          0.00000000	          0.00000000	          0.00000000	          0.00000000	          0.00000000	       -199.25264000	       1251.28051800	         28.28279900	          1.18262900	          0.00000000	         -0.34290500	          0.00000000	          0.00000000	          0.00000000	          0.00000000	        -13.80142500	          0.00000000	
          2.13300000	          0.00000000	          0.00000000	          0.00000000	          0.00000000	          0.00000000	          0.00000000	       -204.62771600	       1260.01721200	         24.28839900	          1.18052500	          0.00000000	         -0.34307400	          0.00000000	          0.00000000	          0.00000000	          0.00000000	        -13.57858100	          0.00000000	
          2.13400000	          0.00000000	          0.00000000	          0.00000000	          0.00000000	          0.00000000	          0.00000000	       -210.03295900	       1267.97106900	         20.08465600	          1.17834800	          0.00000000	         -0.34332000	          0.00000000	          0.00000000	          0.00000000	          0.00000000	        -13.33906700	          0.00000000	
          2.13500000	          0.00000000	          0.00000000	          0.00000000	          0.00000000	          0.00000000	          0.00000000	       -215.43151900	       1275.33862300	         15.71792800	          1.17610300	          0.00000000	         -0.34363600	          0.00000000	          0.00000000	          0.00000000	          0.00000000	        -13.08416100	          0.00000000	
          2.13600000	          0.00000000	          0.00000000	          0.00000000	          0.00000000	          0.00000000	          0.00000000	       -220.78501900	       1282.31189000	         11.23794400	          1.17379200	          0.00000000	         -0.34401400	          0.00000000	          0.00000000	          0.00000000	          0.00000000	        -12.81517500	          0.00000000	
          2.13700000	          0.00000000	          0.00000000	          0.00000000	          0.00000000	          0.00000000	          0.00000000	       -226.05461100	       1289.07592800	          6.69694100	          1.17141800	          0.00000000	         -0.34444500	          0.00000000	          0.00000000	          0.00000000	          0.00000000	        -12.53345500	          0.00000000	
          2.13800000	          0.00000000	          0.00000000	          0.00000000	          0.00000000	          0.00000000	          0.00000000	       -231.20188900	       1295.80651900	          2.14873500	          1.16898500	          0.00000000	         -0.34491600	          0.00000000	          0.00000000	          0.00000000	          0.00000000	        -12.24036200	          0.00000000	
          2.13900000	          0.00000000	          0.00000000	          0.00000000	          0.00000000	          0.00000000	          0.00000000	       -236.18971300	       1302.66833500	         -2.35227200	          1.16649500	          0.00000000	         -0.34541500	          0.00000000	          0.00000000	          0.00000000	          0.00000000	        -11.93726700	          0.00000000	
          2.14000000	          0.00000000	          0.00000000	          0.00000000	          0.00000000	          0.00000000	          0.00000000	       -240.98286400	       1309.81311000	         -6.75210500	          1.16395100	          0.00000000	         -0.34592900	          0.00000000	          0.00000000	          0.00000000	          0.00000000	        -11.62553600	          0.00000000	
          2.14100000	          0.00000000	          0.00000000	          0.00000000	          0.00000000	          0.00000000	          0.00000000	       -245.54847700	       1317.37854000	        -10.99824500	          1.16135600	          0.00000000	         -0.34644300	          0.00000000	          0.00000000	          0.00000000	          0.00000000	        -11.30651900	          0.00000000	
          2.14200000	          0.00000000	          0.00000000	          0.00000000	          0.00000000	          0.00000000	          0.00000000	       -249.85621600	       1325.48645000	        -15.04063800	          1.15871100	          0.00000000	         -0.34694300	          0.00000000	          0.00000000	          0.00000000	          0.00000000	        -10.98153900	          0.00000000	
          2.14300000	          0.00000000	          0.00000000	          0.00000000	          0.00000000	          0.00000000	          0.00000000	       -253.87820400	       1334.24231000	        -18.83266100	          1.15601700	          0.00000000	         -0.34741600	          0.00000000	          0.00000000	          0.00000000	          0.00000000	        -10.65188800	          0.00000000	
          2.14400000	          0.00000000	          0.00000000	          0.00000000	          0.00000000	          0.00000000	          0.00000000	       -257.58889800	       1343.73437500	        -22.33202700	          1.15327300	          0.00000000	         -0.34784800	          0.00000000	          0.00000000	          0.00000000	          0.00000000	        -10.31881000	          0.00000000	
          2.14500000	          0.00000000	          0.00000000	          0.00000000	          0.00000000	          0.00000000	          0.00000000	       -260.96450800	       1354.03259300	        -25.50161000	          1.15047900	          0.00000000	         -0.34822800	          0.00000000	          0.00000000	          0.00000000	          0.00000000	         -9.98349700	          0.00000000	
          2.14600000	          0.00000000	          0.00000000	          0.00000000	          0.00000000	          0.00000000	          0.00000000	       -263.98278800	       1365.18847700	        -28.31014800	          1.14763300	          0.00000000	         -0.34854500	          0.00000000	          0.00000000	          0.00000000	          0.00000000	         -9.64707800	          0.00000000	
